<mxfile host="Electron" modified="2025-03-30T07:05:39.587Z" agent="Mozilla/5.0 (Macintosh; Intel Mac OS X 10_15_7) AppleWebKit/537.36 (KHTML, like Gecko) draw.io/21.5.1 Chrome/112.0.5615.204 Electron/24.6.0 Safari/537.36" etag="-97HRf1CenXpXbBNXE0a" version="21.5.1" type="device" pages="2">
  <diagram name="amiq_system_diagram" id="TNMW5iyuXsXI811wNd7y">
    <mxGraphModel dx="2012" dy="797" grid="1" gridSize="10" guides="1" tooltips="1" connect="1" arrows="1" fold="1" page="1" pageScale="1" pageWidth="850" pageHeight="1100" math="0" shadow="0">
      <root>
        <mxCell id="0" />
        <mxCell id="1" parent="0" />
        <mxCell id="xgrWVXUvrX-ceCSzNFZZ-24" value="" style="endArrow=classic;html=1;rounded=0;entryX=0;entryY=0.5;entryDx=0;entryDy=0;" edge="1" parent="1" target="xgrWVXUvrX-ceCSzNFZZ-16">
          <mxGeometry width="50" height="50" relative="1" as="geometry">
            <mxPoint x="40" y="390" as="sourcePoint" />
            <mxPoint x="250" y="360" as="targetPoint" />
            <Array as="points">
              <mxPoint x="260" y="390" />
              <mxPoint x="260" y="350" />
            </Array>
          </mxGeometry>
        </mxCell>
        <mxCell id="xgrWVXUvrX-ceCSzNFZZ-1" value="SDRAM I" style="rounded=0;whiteSpace=wrap;html=1;" vertex="1" parent="1">
          <mxGeometry x="120" y="220" width="120" height="60" as="geometry" />
        </mxCell>
        <mxCell id="xgrWVXUvrX-ceCSzNFZZ-2" value="SDRAM Q" style="rounded=0;whiteSpace=wrap;html=1;" vertex="1" parent="1">
          <mxGeometry x="120" y="420" width="120" height="60" as="geometry" />
        </mxCell>
        <mxCell id="xgrWVXUvrX-ceCSzNFZZ-3" value="SDRAM&lt;br&gt;Controller" style="rounded=0;whiteSpace=wrap;html=1;" vertex="1" parent="1">
          <mxGeometry x="120" y="320" width="120" height="60" as="geometry" />
        </mxCell>
        <mxCell id="xgrWVXUvrX-ceCSzNFZZ-6" value="" style="endArrow=classic;html=1;rounded=0;entryX=0;entryY=0.5;entryDx=0;entryDy=0;" edge="1" parent="1" target="xgrWVXUvrX-ceCSzNFZZ-3">
          <mxGeometry width="50" height="50" relative="1" as="geometry">
            <mxPoint x="-40" y="350" as="sourcePoint" />
            <mxPoint x="10" y="360" as="targetPoint" />
          </mxGeometry>
        </mxCell>
        <mxCell id="xgrWVXUvrX-ceCSzNFZZ-7" value="" style="endArrow=classic;html=1;rounded=0;" edge="1" parent="1">
          <mxGeometry width="50" height="50" relative="1" as="geometry">
            <mxPoint x="40" y="350" as="sourcePoint" />
            <mxPoint x="120" y="250" as="targetPoint" />
            <Array as="points">
              <mxPoint x="40" y="250" />
            </Array>
          </mxGeometry>
        </mxCell>
        <mxCell id="xgrWVXUvrX-ceCSzNFZZ-8" value="" style="endArrow=classic;html=1;rounded=0;entryX=0;entryY=0.5;entryDx=0;entryDy=0;" edge="1" parent="1" target="xgrWVXUvrX-ceCSzNFZZ-2">
          <mxGeometry width="50" height="50" relative="1" as="geometry">
            <mxPoint x="40" y="350" as="sourcePoint" />
            <mxPoint x="260" y="300" as="targetPoint" />
            <Array as="points">
              <mxPoint x="40" y="450" />
            </Array>
          </mxGeometry>
        </mxCell>
        <mxCell id="xgrWVXUvrX-ceCSzNFZZ-9" value="&lt;font style=&quot;font-size: 8px;&quot;&gt;SRCLK&lt;/font&gt;" style="text;html=1;strokeColor=none;fillColor=none;align=center;verticalAlign=middle;whiteSpace=wrap;rounded=0;" vertex="1" parent="1">
          <mxGeometry x="-40" y="330" width="60" height="20" as="geometry" />
        </mxCell>
        <mxCell id="xgrWVXUvrX-ceCSzNFZZ-10" value="" style="shape=flexArrow;endArrow=classic;html=1;rounded=0;entryX=0.5;entryY=1;entryDx=0;entryDy=0;" edge="1" parent="1" target="xgrWVXUvrX-ceCSzNFZZ-1">
          <mxGeometry width="50" height="50" relative="1" as="geometry">
            <mxPoint x="180" y="320" as="sourcePoint" />
            <mxPoint x="230" y="270" as="targetPoint" />
          </mxGeometry>
        </mxCell>
        <mxCell id="xgrWVXUvrX-ceCSzNFZZ-11" value="" style="shape=flexArrow;endArrow=classic;html=1;rounded=0;entryX=0.5;entryY=0;entryDx=0;entryDy=0;exitX=0.5;exitY=1;exitDx=0;exitDy=0;fillColor=default;" edge="1" parent="1" source="xgrWVXUvrX-ceCSzNFZZ-3" target="xgrWVXUvrX-ceCSzNFZZ-2">
          <mxGeometry width="50" height="50" relative="1" as="geometry">
            <mxPoint x="190" y="330" as="sourcePoint" />
            <mxPoint x="190" y="290" as="targetPoint" />
          </mxGeometry>
        </mxCell>
        <mxCell id="xgrWVXUvrX-ceCSzNFZZ-12" value="DAC I" style="rounded=0;whiteSpace=wrap;html=1;" vertex="1" parent="1">
          <mxGeometry x="280" y="220" width="120" height="60" as="geometry" />
        </mxCell>
        <mxCell id="xgrWVXUvrX-ceCSzNFZZ-13" value="DAC Q" style="rounded=0;whiteSpace=wrap;html=1;" vertex="1" parent="1">
          <mxGeometry x="280" y="420" width="120" height="60" as="geometry" />
        </mxCell>
        <mxCell id="xgrWVXUvrX-ceCSzNFZZ-14" value="" style="shape=flexArrow;endArrow=classic;html=1;rounded=0;entryX=0;entryY=0.5;entryDx=0;entryDy=0;exitX=1;exitY=0.5;exitDx=0;exitDy=0;" edge="1" parent="1" source="xgrWVXUvrX-ceCSzNFZZ-1" target="xgrWVXUvrX-ceCSzNFZZ-12">
          <mxGeometry width="50" height="50" relative="1" as="geometry">
            <mxPoint x="250" y="250" as="sourcePoint" />
            <mxPoint x="190" y="290" as="targetPoint" />
          </mxGeometry>
        </mxCell>
        <mxCell id="xgrWVXUvrX-ceCSzNFZZ-15" value="" style="shape=flexArrow;endArrow=classic;html=1;rounded=0;entryX=0;entryY=0.5;entryDx=0;entryDy=0;exitX=1;exitY=0.5;exitDx=0;exitDy=0;" edge="1" parent="1">
          <mxGeometry width="50" height="50" relative="1" as="geometry">
            <mxPoint x="240" y="449.81" as="sourcePoint" />
            <mxPoint x="280" y="449.81" as="targetPoint" />
          </mxGeometry>
        </mxCell>
        <mxCell id="xgrWVXUvrX-ceCSzNFZZ-16" value="Clock Skew Tuning" style="rounded=0;whiteSpace=wrap;html=1;" vertex="1" parent="1">
          <mxGeometry x="280" y="320" width="120" height="60" as="geometry" />
        </mxCell>
        <mxCell id="xgrWVXUvrX-ceCSzNFZZ-17" value="" style="endArrow=none;html=1;rounded=0;entryX=0;entryY=0.416;entryDx=0;entryDy=0;entryPerimeter=0;exitX=0.001;exitY=0.568;exitDx=0;exitDy=0;exitPerimeter=0;" edge="1" parent="1" source="xgrWVXUvrX-ceCSzNFZZ-1" target="xgrWVXUvrX-ceCSzNFZZ-1">
          <mxGeometry width="50" height="50" relative="1" as="geometry">
            <mxPoint x="133" y="248" as="sourcePoint" />
            <mxPoint x="220" y="300" as="targetPoint" />
            <Array as="points">
              <mxPoint x="126" y="250" />
            </Array>
          </mxGeometry>
        </mxCell>
        <mxCell id="xgrWVXUvrX-ceCSzNFZZ-20" value="" style="endArrow=none;html=1;rounded=0;entryX=0;entryY=0.416;entryDx=0;entryDy=0;entryPerimeter=0;exitX=0.001;exitY=0.568;exitDx=0;exitDy=0;exitPerimeter=0;" edge="1" parent="1">
          <mxGeometry width="50" height="50" relative="1" as="geometry">
            <mxPoint x="120" y="354.5" as="sourcePoint" />
            <mxPoint x="120" y="345.5" as="targetPoint" />
            <Array as="points">
              <mxPoint x="126" y="350.5" />
            </Array>
          </mxGeometry>
        </mxCell>
        <mxCell id="xgrWVXUvrX-ceCSzNFZZ-21" value="" style="endArrow=none;html=1;rounded=0;entryX=0;entryY=0.416;entryDx=0;entryDy=0;entryPerimeter=0;exitX=0.001;exitY=0.568;exitDx=0;exitDy=0;exitPerimeter=0;" edge="1" parent="1">
          <mxGeometry width="50" height="50" relative="1" as="geometry">
            <mxPoint x="120" y="454.5" as="sourcePoint" />
            <mxPoint x="120" y="445.5" as="targetPoint" />
            <Array as="points">
              <mxPoint x="126" y="450.5" />
            </Array>
          </mxGeometry>
        </mxCell>
        <mxCell id="xgrWVXUvrX-ceCSzNFZZ-22" value="" style="endArrow=none;html=1;rounded=0;entryX=0;entryY=0.416;entryDx=0;entryDy=0;entryPerimeter=0;" edge="1" parent="1">
          <mxGeometry width="50" height="50" relative="1" as="geometry">
            <mxPoint x="345" y="420" as="sourcePoint" />
            <mxPoint x="335" y="420" as="targetPoint" />
            <Array as="points">
              <mxPoint x="340" y="430" />
            </Array>
          </mxGeometry>
        </mxCell>
        <mxCell id="xgrWVXUvrX-ceCSzNFZZ-23" value="" style="endArrow=none;html=1;rounded=0;entryX=0;entryY=0.416;entryDx=0;entryDy=0;entryPerimeter=0;" edge="1" parent="1">
          <mxGeometry width="50" height="50" relative="1" as="geometry">
            <mxPoint x="345" y="280" as="sourcePoint" />
            <mxPoint x="335" y="280" as="targetPoint" />
            <Array as="points">
              <mxPoint x="340" y="270" />
            </Array>
          </mxGeometry>
        </mxCell>
        <mxCell id="xgrWVXUvrX-ceCSzNFZZ-25" value="" style="endArrow=classic;html=1;rounded=0;entryX=0.5;entryY=1;entryDx=0;entryDy=0;" edge="1" parent="1" source="xgrWVXUvrX-ceCSzNFZZ-16" target="xgrWVXUvrX-ceCSzNFZZ-12">
          <mxGeometry width="50" height="50" relative="1" as="geometry">
            <mxPoint x="210" y="410" as="sourcePoint" />
            <mxPoint x="260" y="360" as="targetPoint" />
          </mxGeometry>
        </mxCell>
        <mxCell id="xgrWVXUvrX-ceCSzNFZZ-26" value="" style="endArrow=classic;html=1;rounded=0;entryX=0.5;entryY=0;entryDx=0;entryDy=0;exitX=0.5;exitY=1;exitDx=0;exitDy=0;" edge="1" parent="1" source="xgrWVXUvrX-ceCSzNFZZ-16" target="xgrWVXUvrX-ceCSzNFZZ-13">
          <mxGeometry width="50" height="50" relative="1" as="geometry">
            <mxPoint x="350" y="330" as="sourcePoint" />
            <mxPoint x="350" y="290" as="targetPoint" />
          </mxGeometry>
        </mxCell>
        <mxCell id="xgrWVXUvrX-ceCSzNFZZ-27" value="" style="endArrow=classic;html=1;rounded=0;exitX=1;exitY=0.5;exitDx=0;exitDy=0;" edge="1" parent="1" source="xgrWVXUvrX-ceCSzNFZZ-12">
          <mxGeometry width="50" height="50" relative="1" as="geometry">
            <mxPoint x="470" y="450" as="sourcePoint" />
            <mxPoint x="440" y="250" as="targetPoint" />
          </mxGeometry>
        </mxCell>
        <mxCell id="xgrWVXUvrX-ceCSzNFZZ-28" value="&lt;font style=&quot;font-size: 8px;&quot;&gt;I_DAC_CLK&lt;/font&gt;" style="text;html=1;strokeColor=none;fillColor=none;align=center;verticalAlign=middle;whiteSpace=wrap;rounded=0;" vertex="1" parent="1">
          <mxGeometry x="340" y="290" width="60" height="20" as="geometry" />
        </mxCell>
        <mxCell id="xgrWVXUvrX-ceCSzNFZZ-29" value="&lt;font style=&quot;font-size: 8px;&quot;&gt;Q_DAC_CLK&lt;/font&gt;" style="text;html=1;strokeColor=none;fillColor=none;align=center;verticalAlign=middle;whiteSpace=wrap;rounded=0;" vertex="1" parent="1">
          <mxGeometry x="340" y="390" width="60" height="20" as="geometry" />
        </mxCell>
        <mxCell id="xgrWVXUvrX-ceCSzNFZZ-30" value="" style="endArrow=classic;html=1;rounded=0;exitX=1;exitY=0.5;exitDx=0;exitDy=0;" edge="1" parent="1">
          <mxGeometry width="50" height="50" relative="1" as="geometry">
            <mxPoint x="400" y="449.82" as="sourcePoint" />
            <mxPoint x="440" y="449.82" as="targetPoint" />
          </mxGeometry>
        </mxCell>
        <mxCell id="xgrWVXUvrX-ceCSzNFZZ-31" value="&lt;font style=&quot;font-size: 8px;&quot;&gt;I_DAC_OUT&lt;/font&gt;" style="text;html=1;strokeColor=none;fillColor=none;align=center;verticalAlign=middle;whiteSpace=wrap;rounded=0;" vertex="1" parent="1">
          <mxGeometry x="440" y="240" width="60" height="20" as="geometry" />
        </mxCell>
        <mxCell id="xgrWVXUvrX-ceCSzNFZZ-32" value="&lt;font style=&quot;font-size: 8px;&quot;&gt;Q_DAC_OUT&lt;/font&gt;" style="text;html=1;strokeColor=none;fillColor=none;align=center;verticalAlign=middle;whiteSpace=wrap;rounded=0;" vertex="1" parent="1">
          <mxGeometry x="440" y="440" width="60" height="20" as="geometry" />
        </mxCell>
      </root>
    </mxGraphModel>
  </diagram>
  <diagram id="StmhSXi9fq09Fwmt4hiG" name="test">
    <mxGraphModel dx="1336" dy="917" grid="1" gridSize="10" guides="1" tooltips="1" connect="1" arrows="1" fold="1" page="1" pageScale="1" pageWidth="850" pageHeight="1100" math="0" shadow="0">
      <root>
        <mxCell id="0" />
        <mxCell id="1" parent="0" />
      </root>
    </mxGraphModel>
  </diagram>
</mxfile>
